<svg width="25" height="24" viewBox="0 0 25 24" fill="none" xmlns="http://www.w3.org/2000/svg">
<path d="M22.1106 18.33C22.1106 18.69 22.0306 19.06 21.8606 19.42C21.6906 19.78 21.4706 20.12 21.1806 20.44C20.6906 20.98 20.1506 21.37 19.5406 21.62C18.9406 21.87 18.2906 22 17.5906 22C16.5706 22 15.4806 21.76 14.3306 21.27C13.1806 20.78 12.0306 20.12 10.8906 19.29C9.74063 18.45 8.65062 17.52 7.61062 16.49C6.58062 15.45 5.65062 14.36 4.82062 13.22C4.00062 12.08 3.34063 10.94 2.86063 9.81C2.38063 8.67 2.14062 7.58 2.14062 6.54C2.14062 5.86 2.26062 5.21 2.50062 4.61C2.74062 4 3.12063 3.44 3.65062 2.94C4.29062 2.31 4.99063 2 5.73063 2C6.01063 2 6.29063 2.06 6.54063 2.18C6.80063 2.3 7.03063 2.48 7.21063 2.74L9.53063 6.01C9.71063 6.26 9.84062 6.49 9.93062 6.71C10.0206 6.92 10.0706 7.13 10.0706 7.32C10.0706 7.56 10.0006 7.8 9.86063 8.03C9.73063 8.26 9.54062 8.5 9.30062 8.74L8.54062 9.53C8.43062 9.64 8.38062 9.77 8.38062 9.93C8.38062 10.01 8.39063 10.08 8.41063 10.16C8.44063 10.24 8.47063 10.3 8.49063 10.36C8.67063 10.69 8.98062 11.12 9.42062 11.64C9.87062 12.16 10.3506 12.69 10.8706 13.22C11.4106 13.75 11.9306 14.24 12.4606 14.69C12.9806 15.13 13.4106 15.43 13.7506 15.61C13.8006 15.63 13.8606 15.66 13.9306 15.69C14.0106 15.72 14.0906 15.73 14.1806 15.73C14.3506 15.73 14.4806 15.67 14.5906 15.56L15.3506 14.81C15.6006 14.56 15.8406 14.37 16.0706 14.25C16.3006 14.11 16.5306 14.04 16.7806 14.04C16.9706 14.04 17.1706 14.08 17.3906 14.17C17.6106 14.26 17.8406 14.39 18.0906 14.56L21.4006 16.91C21.6606 17.09 21.8406 17.3 21.9506 17.55C22.0506 17.8 22.1106 18.05 22.1106 18.33Z" stroke="white" stroke-width="1.5" stroke-miterlimit="10"/>
</svg>
